{"title":"A Dangerous Method 2011 DvDRip.Cam.Audo.XviD.Feel-Free","uid":6991945,"size":907566673,"categoryP":"video","categoryS":"movies","magnet":"?xt=urn:btih:7d20e851d0854e37234bbc9c448c178693d25f9f&amp;dn=A+Dangerous+Method+2011+DvDRip.Cam.Audo.XviD.Feel-Free&amp;tr=udp%3A%2F%2Ftracker.openbittorrent.com%3A80&amp;tr=udp%3A%2F%2Fopen.demonii.com%3A1337&amp;tr=udp%3A%2F%2Ftracker.coppersurfer.tk%3A6969&amp;tr=udp%3A%2F%2Fexodus.desync.com%3A6969","seeders":0,"leechers":1,"uploader":"hiest","files":-1,"time":1327739518,"description":"Full Credits To Feel Free :)\n\n ######## ######## ######## ##          ######## ########  ######## ######## \n ##       ##       ##       ##          ##       ##     ## ##       ##       \n ##       ##       ##       ##          ##       ##     ## ##       ##       \n ######   ######   ######   ##          ######   ########  ######   ######   \n ##       ##       ##       ##          ##       ##   ##   ##       ##       \n ##       ##       ##       ##          ##       ##    ##  ##       ##       \n ##       ######## ######## ########    ##       ##     ## ######## ########\n\n Genre:Drama | Thriller\n Language:English\n IMDb:\n &lt;a href=&quot; http://www.imdb.com/title/tt1571222/&quot; rel=&quot;nofollow&quot; target=&quot;_NEW&quot;&gt; http://www.imdb.com/title/tt1571222/&lt;/a&gt;\n Source:ITALiAN/Evolution Thanks!\n\n Format : AVI\n Format/Info : Audio Video Interleave\n File size : 864 MiB\n Duration : 1h 35mn\n Overall bit rate : 1 268 Kbps\n\n Video\n ID : 0\n Format : MPEG-4 Visual\n Format profile : Advanced Simple@L5\n Format settings, BVOP : 2\n Format settings, QPel : No\n Format settings, GMC : No warppoints\n Format settings, Matrix : Default (H.263)\n Muxing mode : Packed bitstream\n Codec ID : XVID\n Codec ID/Hint : XviD\n Duration : 1h 35mn\n Bit rate : 1 130 Kbps\n Width : 624 pixels\n Height : 336 pixels\n Display aspect ratio : 1.857\n Frame rate : 25.000 fps\n Color space : YUV\n Chroma subsampling : 4:2:0\n Bit depth : 8 bits\n Scan type : Progressive\n Compression mode : Lossy\n Bits/(Pixel*Frame) : 0.216\n Stream size : 770 MiB (89%)\n Writing library : XviD 64\n\n Audio\n ID : 1\n Format : MPEG Audio\n Format version : Version 1\n Format profile : Layer 3\n Codec ID : 55\n Codec ID/Hint : MP3\n Duration : 1h 35mn\n Bit rate mode : Constant\n Bit rate : 128 Kbps\n Channel(s) : 2 channels\n Sampling rate : 44.1 KHz\n Compression mode : Lossy\n Delay relative to video : 5ms\n Stream size : 87.2 MiB (10%)\n Alignment : Split accross interleaves\n Interleave, duration : 40 ms (1.00 video frame)\n Interleave, preload duration : 500 ms\n\n\n Plot:\n A look at how the intense relationship between Carl Jung and Sigmund Freud gives birth to psychoanalysis\n\nFull Credits To Feel Free :)\n\n ######## ######## ######## ##          ######## ########  ######## ######## \n ##       ##       ##       ##          ##       ##     ## ##       ##       \n ##       ##       ##       ##          ##       ##     ## ##       ##       \n ######   ######   ######   ##          ######   ########  ######   ######   \n ##       ##       ##       ##          ##       ##   ##   ##       ##       \n ##       ##       ##       ##          ##       ##    ##  ##       ##       \n ##       ######## ######## ########    ##       ##     ## ######## ########","torrent":{"xt":"urn:btih:7d20e851d0854e37234bbc9c448c178693d25f9f","amp;dn":"A+Dangerous+Method+2011+DvDRip.Cam.Audo.XviD.Feel-Free","amp;tr":["udp%3A%2F%2Ftracker.openbittorrent.com%3A80","udp%3A%2F%2Fopen.demonii.com%3A1337","udp%3A%2F%2Ftracker.coppersurfer.tk%3A6969","udp%3A%2F%2Fexodus.desync.com%3A6969"],"infoHash":"7d20e851d0854e37234bbc9c448c178693d25f9f","infoHashBuffer":{"type":"Buffer","data":[125,32,232,81,208,133,78,55,35,75,188,156,68,140,23,134,147,210,95,159]},"announce":[],"urlList":[]}}